<svg width="1280" height="720" viewBox="0 0 1280 720" fill="none" xmlns="http://www.w3.org/2000/svg">
<rect width="1280" height="720" fill="#E5E5E5"/>
<rect width="1280" height="720" fill="white"/>
<line x1="267.619" y1="377.676" x2="329.619" y2="304.676" stroke="black"/>
<line x1="391.619" y1="377.676" x2="453.619" y2="304.676" stroke="black"/>
<line x1="391.619" y1="377.676" x2="453.619" y2="304.676" stroke="black"/>
<line x1="515.619" y1="377.676" x2="577.619" y2="304.676" stroke="black"/>
<line x1="763.619" y1="377.676" x2="825.619" y2="304.676" stroke="black"/>
<line x1="639.619" y1="377.676" x2="701.619" y2="304.676" stroke="black"/>
<line x1="330.381" y1="304.676" x2="392.379" y2="377.678" stroke="black"/>
<line x1="454.381" y1="304.676" x2="516.379" y2="377.678" stroke="black"/>
<line x1="578.381" y1="304.676" x2="640.379" y2="377.678" stroke="black"/>
<line x1="826.381" y1="304.676" x2="888.379" y2="377.678" stroke="black"/>
<line x1="702.381" y1="304.676" x2="764.379" y2="377.678" stroke="black"/>
<line x1="887.619" y1="376.676" x2="949.619" y2="303.676" stroke="black"/>
<line x1="950.381" y1="303.676" x2="1012.38" y2="376.678" stroke="black"/>
<line x1="1012.38" y1="342.407" x2="950.428" y2="415.449" stroke="black"/>
<line x1="888.378" y1="342.491" x2="826.428" y2="415.533" stroke="black"/>
<line x1="640.378" y1="342.659" x2="578.428" y2="415.701" stroke="black"/>
<line x1="764.378" y1="342.575" x2="702.428" y2="415.617" stroke="black"/>
<line x1="949.665" y1="415.45" x2="887.618" y2="342.49" stroke="black"/>
<line x1="825.665" y1="415.534" x2="763.618" y2="342.574" stroke="black"/>
<line x1="577.666" y1="415.702" x2="515.618" y2="342.742" stroke="black"/>
<line x1="701.666" y1="415.618" x2="639.618" y2="342.658" stroke="black"/>
<line x1="392.379" y1="343.827" x2="330.429" y2="416.869" stroke="black"/>
<line x1="516.379" y1="343.743" x2="454.428" y2="416.785" stroke="black"/>
<line x1="329.666" y1="416.87" x2="267.619" y2="343.91" stroke="black"/>
<line x1="453.666" y1="416.786" x2="391.619" y2="343.826" stroke="black"/>
<path d="M342.864 380.816L336.948 367.896C335.452 364.677 333.571 362.388 331.304 361.028C329.037 359.668 326.136 358.988 322.6 358.988H321.58V380H315.12V332.536C317.568 332.309 319.857 332.151 321.988 332.06C324.164 331.924 326.521 331.856 329.06 331.856C331.961 331.856 334.5 332.173 336.676 332.808C338.852 333.397 340.665 334.259 342.116 335.392C343.567 336.525 344.655 337.863 345.38 339.404C346.151 340.945 346.536 342.645 346.536 344.504C346.536 347.813 345.539 350.488 343.544 352.528C341.595 354.523 338.761 356.019 335.044 357.016C335.951 357.424 336.789 357.9 337.56 358.444C338.331 358.943 339.056 359.577 339.736 360.348C340.416 361.073 341.073 361.957 341.708 363C342.388 364.043 343.068 365.312 343.748 366.808L348.916 377.96L342.864 380.816ZM329.06 337.296C327.519 337.296 326.136 337.319 324.912 337.364C323.688 337.409 322.577 337.477 321.58 337.568V353.548H329.06C332.324 353.548 334.976 352.823 337.016 351.372C339.056 349.921 340.076 347.836 340.076 345.116C340.076 342.849 339.124 340.991 337.22 339.54C335.316 338.044 332.596 337.296 329.06 337.296Z" fill="black"/>
<path d="M937.12 332.4H965.68V337.976H943.58V352.46H962.62V357.9H943.58V374.424H965.68V380H937.12V332.4Z" fill="black"/>
<path d="M845.188 375.192L840.7 379.816L817.58 357.104V379H811.12V331.4H817.58V353.092L837.844 331.196L842.196 335.208L823.632 354.52L845.188 375.192Z" fill="black"/>
<path d="M683.68 332.4H719.38V338.112H704.76V380H698.3V338.112H683.68V332.4Z" fill="black"/>
<path d="M560.12 332.536C562.251 332.309 564.336 332.151 566.376 332.06C568.416 331.924 570.751 331.856 573.38 331.856C577.46 331.856 580.973 332.491 583.92 333.76C586.867 335.029 589.315 336.775 591.264 338.996C593.213 341.217 594.641 343.801 595.548 346.748C596.5 349.695 596.976 352.823 596.976 356.132C596.976 359.441 596.5 362.592 595.548 365.584C594.596 368.531 593.123 371.115 591.128 373.336C589.179 375.557 586.663 377.325 583.58 378.64C580.543 379.909 576.893 380.544 572.632 380.544C570.048 380.544 567.781 380.476 565.832 380.34C563.928 380.249 562.024 380.091 560.12 379.864V332.536ZM573.176 337.432C571.861 337.432 570.66 337.477 569.572 337.568C568.484 337.613 567.487 337.681 566.58 337.772V374.56C567.532 374.696 568.529 374.787 569.572 374.832C570.615 374.877 571.703 374.9 572.836 374.9C575.873 374.9 578.503 374.447 580.724 373.54C582.945 372.588 584.759 371.296 586.164 369.664C587.615 367.987 588.68 366.015 589.36 363.748C590.04 361.436 590.38 358.897 590.38 356.132C590.38 353.684 590.04 351.349 589.36 349.128C588.68 346.861 587.637 344.867 586.232 343.144C584.827 341.376 583.036 339.993 580.86 338.996C578.684 337.953 576.123 337.432 573.176 337.432Z" fill="black"/>
<path d="M431.68 376.3L450.312 330.4H457.384L475.744 376.3L469.828 378.68L464.524 365.08H442.492L437.188 378.544L431.68 376.3ZM444.532 359.64H462.416L453.508 336.792L444.532 359.64Z" fill="black"/>
</svg>
